PathFileType	4	(X/Y/Z)	/Users/itak/Documents/Research/Walk-IL/dataset/trc/00564_00009.trc
DataRate	CameraRate	NumFrames	NumMarkers	Units	OrigDataRate	OrigDataStartFrame	OrigNumFrames
100.000000	100.000000	4	53	mm	100.000000	0	503
Frame#	Time	RPSI			LPSI			L3			STRN			T10			C7			CLAV			RBAK			LBAK			LSHO			LUPA			LAEL			LAOL			LWTS			LWPS			LFRA			LHPS			LHTS			RSHO			RUPA			RAEL			RAOL			RWTS			RWPS			RFRA			RIFD			RHTS			RHPS			RBHD			LFHD			RFHD			LBHD			LHIP			RHIP			RASI			LASI			LKNE			LTHI			LANK			LTIP			LTOE			LMT1			LMT5			LHEE			RKNE			RTHI			RANK			RTIP			RTOE			RMT1			RMT5			RHEE			LIFD			
		X1	Y1	Z1	X2	Y2	Z2	X3	Y3	Z3	X4	Y4	Z4	X5	Y5	Z5	X6	Y6	Z6	X7	Y7	Z7	X8	Y8	Z8	X9	Y9	Z9	X10	Y10	Z10	X11	Y11	Z11	X12	Y12	Z12	X13	Y13	Z13	X14	Y14	Z14	X15	Y15	Z15	X16	Y16	Z16	X17	Y17	Z17	X18	Y18	Z18	X19	Y19	Z19	X20	Y20	Z20	X21	Y21	Z21	X22	Y22	Z22	X23	Y23	Z23	X24	Y24	Z24	X25	Y25	Z25	X26	Y26	Z26	X27	Y27	Z27	X28	Y28	Z28	X29	Y29	Z29	X30	Y30	Z30	X31	Y31	Z31	X32	Y32	Z32	X33	Y33	Z33	X34	Y34	Z34	X35	Y35	Z35	X36	Y36	Z36	X37	Y37	Z37	X38	Y38	Z38	X39	Y39	Z39	X40	Y40	Z40	X41	Y41	Z41	X42	Y42	Z42	X43	Y43	Z43	X44	Y44	Z44	X45	Y45	Z45	X46	Y46	Z46	X47	Y47	Z47	X48	Y48	Z48	X49	Y49	Z49	X50	Y50	Z50	X51	Y51	Z51	X52	Y52	Z52	X53	Y53	Z53	

1	0	-1144.473510742188	1014.10986328125	-276.2048645019531	-1125.1669921875	1018.216674804688	-408.3084106445312	-1129.326782226562	1103.26220703125	-344.6114196777344	-906.8775024414062	1291.281005859375	-326.0491638183594	-1143.997802734375	1228.955078125	-347.5497436523438	-1101.2236328125	1503.51513671875	-330.3290100097656	-929.421875	1400.066650390625	-327.215576171875	-1180.013793945312	1377.6884765625	-251.7254028320312	-1128.162841796875	1450.804565429688	-424.3802490234375	-1025.337524414062	1474.72216796875	-500.0423889160156	-1028.225341796875	1347.162231445312	-578.8190307617188	-1001.913696289062	1126.275024414062	-599.0376586914062	-1094.49365234375	1116.72900390625	-559.3411254882812	-912.2515869140625	887.634033203125	-534.6727905273438	-947.0853881835938	861.9804077148438	-610.5354614257812	-976.289306640625	1040.679565429688	-601.2281494140625	-938.0494995117188	802.9649658203125	-600.563720703125	-889.41357421875	812.237060546875	-551.9630737304688	-1055.873901367188	1463.005126953125	-170.5077514648438	-1077.6513671875	1396.378173828125	-104.2786331176758	-1072.062622070312	1104.680908203125	-65.83469390869141	-1126.571533203125	1088.016723632812	-92.63259887695312	-937.4022827148438	884.9594116210938	-114.8994064331055	-981.6984252929688	862.4712524414062	-47.30922698974609	-1060.573120117188	1048.505249023438	-61.1511116027832	-930.162353515625	710.9908447265625	-116.9977188110352	-908.336669921875	793.359619140625	-101.9709243774414	-964.3726806640625	787.9679565429688	-52.91508483886719	-1030.55615234375	1684.843872070312	-260.4808654785156	-851.6649169921875	1701.547485351562	-365.2439880371094	-894.5968017578125	1696.118530273438	-227.4649810791016	-974.3760375976562	1689.028930664062	-416.4197998046875	-985.1002197265625	935.4286499023438	-521.107177734375	-1041.021362304688	936.287353515625	-141.1120910644531	-944.2362670898438	966.87109375	-185.6984710693359	-912.1103515625	960.1460571289062	-460.9370422363281	-980.97119140625	490.2478942871094	-455.2402648925781	-969.7238159179688	655.8067626953125	-495.2086791992188	-1087.868896484375	34.30892181396484	-454.0248413085938	-1056.923950195312	249.0847473144531	-464.8725280761719	-882.2070922851562	35.9473991394043	-375.1787414550781	-960.278076171875	37.07297134399414	-347.1315612792969	-963.7442016601562	35.30681991577148	-453.5071716308594	-1162.161376953125	32.15339660644531	-405.6493835449219	-1029.03125	493.3544006347656	-196.6927642822266	-1005.536254882812	781.3938598632812	-143.0752258300781	-1147.705322265625	34.66589736938477	-234.0930786132812	-1040.540161132812	351.2486572265625	-213.5740203857422	-921.1927490234375	38.11797332763672	-239.172607421875	-976.5291137695312	38.84494781494141	-290.5719909667969	-1019.324645996094	36.92742919921875	-193.5082855224609	-1191.750244140625	25.4146614074707	-297.2148742675781	-910.0958862304688	719.0385131835938	-536.4283447265625	
2	0.01	-1144.477294921875	1014.112487792969	-276.2191772460938	-1125.195068359375	1018.220520019531	-408.3332214355469	-1129.331665039062	1103.26953125	-344.6242370605469	-906.8871459960938	1291.249633789062	-326.0794982910156	-1143.990356445312	1228.973754882812	-347.5561828613281	-1101.184448242188	1503.527587890625	-330.3192138671875	-929.3832397460938	1400.0712890625	-327.2276611328125	-1179.989868164062	1377.689453125	-251.7104644775391	-1128.15380859375	1450.832885742188	-424.354248046875	-1025.331909179688	1474.739013671875	-500.0540771484375	-1028.239990234375	1347.160400390625	-578.807373046875	-1001.945007324219	1126.281860351562	-599.0418090820312	-1094.516723632812	1116.745971679688	-559.3407592773438	-912.267333984375	887.6251831054688	-534.7003784179688	-947.1786499023438	861.9759521484375	-610.5603637695312	-976.333984375	1040.678833007812	-601.2302856445312	-938.1508178710938	802.9708251953125	-600.6351928710938	-889.5718383789062	812.1489868164062	-551.9227905273438	-1055.833862304688	1463.00146484375	-170.4685668945312	-1077.624633789062	1396.3642578125	-104.2602615356445	-1072.059692382812	1104.650634765625	-65.82855224609375	-1126.522583007812	1087.988403320312	-92.68473815917969	-937.4161376953125	884.9208374023438	-114.9695816040039	-981.6947631835938	862.4403076171875	-47.37919998168945	-1060.540405273438	1048.476196289062	-61.18679428100586	-930.2096557617188	710.9906005859375	-117.0761413574219	-908.2869873046875	793.3961181640625	-102.1077041625977	-964.4334716796875	787.9625244140625	-52.92337417602539	-1030.486083984375	1684.838745117188	-260.4626159667969	-851.5946044921875	1701.53271484375	-365.2422485351562	-894.4916381835938	1696.069702148438	-227.4606781005859	-974.3450927734375	1689.02685546875	-416.4047546386719	-985.1832275390625	935.4308471679688	-521.1434326171875	-1041.019775390625	936.300537109375	-141.1115417480469	-944.2517700195312	966.8768920898438	-185.7235260009766	-912.1793212890625	960.1253662109375	-460.9937133789062	-980.9739379882812	490.2536315917969	-455.2572326660156	-969.75	655.775634765625	-495.2496643066406	-1087.887084960938	34.2855224609375	-454.0276489257812	-1056.935791015625	249.0825653076172	-464.8759460449219	-882.211669921875	35.94948196411133	-375.1894226074219	-960.280029296875	37.07389450073242	-347.1289978027344	-963.6940307617188	35.29047775268555	-453.5207214355469	-1162.162841796875	32.15309524536133	-405.6485290527344	-1029.04443359375	493.3534240722656	-196.7082672119141	-1005.524169921875	781.3867797851562	-143.131103515625	-1147.70849609375	34.66073608398438	-234.0836791992188	-1040.532836914062	351.2538452148438	-213.6395721435547	-921.17822265625	38.11849594116211	-239.163330078125	-976.5293579101562	38.84655380249023	-290.5735168457031	-1019.32470703125	36.92914581298828	-193.507568359375	-1191.759887695312	25.40306091308594	-297.211669921875	-910.2849731445312	718.9558715820312	-536.3718872070312	
3	0.02	-1144.480834960938	1014.115539550781	-276.2349853515625	-1125.228271484375	1018.227661132812	-408.3625183105469	-1129.338623046875	1103.279541015625	-344.638916015625	-906.894775390625	1291.21044921875	-326.1178283691406	-1143.9765625	1228.995727539062	-347.5650329589844	-1101.132568359375	1503.545288085938	-330.3067321777344	-929.3336181640625	1400.074829101562	-327.2444763183594	-1179.95849609375	1377.691162109375	-251.6910400390625	-1128.135864257812	1450.865600585938	-424.3254699707031	-1025.316040039062	1474.757202148438	-500.0642395019531	-1028.25732421875	1347.16064453125	-578.7966918945312	-1001.982604980469	1126.2900390625	-599.0469970703125	-1094.546020507812	1116.767944335938	-559.341064453125	-912.2914428710938	887.613525390625	-534.7326049804688	-947.2869262695312	861.97119140625	-610.5941162109375	-976.389892578125	1040.679321289062	-601.2366333007812	-938.2778930664062	802.9756469726562	-600.7265014648438	-889.91015625	811.945556640625	-551.8187866210938	-1055.779418945312	1462.99462890625	-170.4287567138672	-1077.5859375	1396.344604492188	-104.2420501708984	-1072.051391601562	1104.607299804688	-65.81898498535156	-1126.456665039062	1087.953247070312	-92.75161743164062	-937.4314575195312	884.8705444335938	-115.0625381469727	-981.6884765625	862.3992919921875	-47.47443008422852	-1060.494384765625	1048.437744140625	-61.23637771606445	-930.26123046875	710.97705078125	-117.1757888793945	-908.2455444335938	793.418212890625	-102.2832870483398	-964.487548828125	787.9452514648438	-52.95666885375977	-1030.397827148438	1684.831665039062	-260.4373474121094	-851.5025024414062	1701.51171875	-365.2441101074219	-894.35986328125	1696.008666992188	-227.4555969238281	-974.30078125	1689.025634765625	-416.3835754394531	-985.281005859375	935.434814453125	-521.189208984375	-1041.016967773438	936.3147583007812	-141.1104278564453	-944.26904296875	966.8817749023438	-185.7510681152344	-912.2619018554688	960.1009521484375	-461.0653076171875	-980.9801635742188	490.2596740722656	-455.2798156738281	-969.7748413085938	655.7442626953125	-495.2988891601562	-1087.90283203125	34.26499938964844	-454.030517578125	-1056.951171875	249.0808410644531	-464.8812255859375	-882.2182006835938	35.95254516601562	-375.2004089355469	-960.2814331054688	37.07537078857422	-347.1269836425781	-963.6560668945312	35.27810287475586	-453.5310363769531	-1162.16455078125	32.15254211425781	-405.6477661132812	-1029.059448242188	493.3517761230469	-196.7279663085938	-1005.504089355469	781.3779296875	-143.1971282958984	-1147.712036132812	34.65311050415039	-234.0728302001953	-1040.54248046875	351.2672119140625	-213.6893157958984	-921.16943359375	38.12067413330078	-239.1587219238281	-976.5302124023438	38.84861373901367	-290.5754699707031	-1019.324340820312	36.93109130859375	-193.5069732666016	-1191.770263671875	25.38817596435547	-297.2062377929688	-910.65771484375	718.7620849609375	-536.250244140625	
4	0.03	-1144.483520507812	1014.118469238281	-276.2509460449219	-1125.264526367188	1018.238525390625	-408.3938903808594	-1129.346923828125	1103.291748046875	-344.6539001464844	-906.89794921875	1291.165405273438	-326.1625061035156	-1143.95556640625	1229.019409179688	-347.5762023925781	-1101.0693359375	1503.567749023438	-330.2919921875	-929.274169921875	1400.076171875	-327.2657165527344	-1179.920166015625	1377.693725585938	-251.6679382324219	-1128.107543945312	1450.900512695312	-424.296875	-1025.286254882812	1474.774658203125	-500.0703430175781	-1028.275756835938	1347.164184570312	-578.7890625	-1002.023742675781	1126.29931640625	-599.053466796875	-1094.580444335938	1116.794677734375	-559.3428344726562	-912.3261108398438	887.5989379882812	-534.7671508789062	-947.4021606445312	861.9672241210938	-610.636474609375	-976.4544677734375	1040.681518554688	-601.2490234375	-938.4253540039062	802.9783325195312	-600.833740234375	-890.4343872070312	811.62255859375	-551.6536865234375	-1055.710815429688	1462.9833984375	-170.3947296142578	-1077.534545898438	1396.319213867188	-104.2264175415039	-1072.035034179688	1104.55078125	-65.80712127685547	-1126.375244140625	1087.912963867188	-92.83052062988281	-937.4468994140625	884.809814453125	-115.177116394043	-981.6790771484375	862.3487548828125	-47.59393692016602	-1060.434936523438	1048.3916015625	-61.29953384399414	-930.3108520507812	710.9481811523438	-117.2963180541992	-908.2232666015625	793.4141235351562	-102.4909515380859	-964.525390625	787.9119262695312	-53.02077102661133	-1030.2958984375	1684.822875976562	-260.4057922363281	-851.391357421875	1701.484130859375	-365.2505493164062	-894.2071533203125	1695.938598632812	-227.4496612548828	-974.2423706054688	1689.02587890625	-416.3562927246094	-985.3851928710938	935.4406127929688	-521.2424926757812	-1041.012451171875	936.328125	-141.1090240478516	-944.2850341796875	966.8854370117188	-185.7798156738281	-912.3525390625	960.0740356445312	-461.1490478515625	-980.9901123046875	490.2654418945312	-455.3073425292969	-969.7935180664062	655.7168579101562	-495.353759765625	-1087.913696289062	34.25102996826172	-454.0331726074219	-1056.970825195312	249.0795135498047	-464.8887634277344	-882.2255249023438	35.95639419555664	-375.2088012695312	-960.2819213867188	37.07727432250977	-347.1260681152344	-963.6375122070312	35.27191543579102	-453.5362243652344	-1162.166259765625	32.15214538574219	-405.6474609375	-1029.074584960938	493.3490600585938	-196.7517242431641	-1005.474182128906	781.3677978515625	-143.2697143554688	-1147.715942382812	34.64283752441406	-234.0611724853516	-1040.569213867188	351.2866516113281	-213.7180938720703	-921.1676635742188	38.12423324584961	-239.1601867675781	-976.5322875976562	38.85083389282227	-290.5780334472656	-1019.323364257812	36.93292999267578	-193.5067291259766	-1191.780517578125	25.37095069885254	-297.1983947753906	-911.2144165039062	718.4569702148438	-536.071533203125	
